<mxfile host="app.diagrams.net" modified="2023-05-10T08:54:32.166Z" agent="Mozilla/5.0 (Windows NT 10.0; Win64; x64) AppleWebKit/537.36 (KHTML, like Gecko) Chrome/112.0.0.0 Safari/537.36" etag="OM0FG-fcBVJMZeDdGjIW" version="21.2.9" type="device">
  <diagram id="C5RBs43oDa-KdzZeNtuy" name="Page-1">
    <mxGraphModel dx="1434" dy="796" grid="1" gridSize="10" guides="1" tooltips="1" connect="1" arrows="1" fold="1" page="1" pageScale="1" pageWidth="827" pageHeight="1169" math="0" shadow="0">
      <root>
        <mxCell id="WIyWlLk6GJQsqaUBKTNV-0" />
        <mxCell id="WIyWlLk6GJQsqaUBKTNV-1" parent="WIyWlLk6GJQsqaUBKTNV-0" />
        <mxCell id="gJqL6_EH1w5VgECoRCxp-0" value="Conexion" style="rounded=0;whiteSpace=wrap;html=1;" parent="WIyWlLk6GJQsqaUBKTNV-1" vertex="1">
          <mxGeometry x="780" y="40" width="120" height="60" as="geometry" />
        </mxCell>
        <mxCell id="KQm_XFiNXjphoHFc2ge8-8" value="" style="edgeStyle=orthogonalEdgeStyle;rounded=0;orthogonalLoop=1;jettySize=auto;html=1;endArrow=diamondThin;endFill=1;" edge="1" parent="WIyWlLk6GJQsqaUBKTNV-1" source="gJqL6_EH1w5VgECoRCxp-1">
          <mxGeometry relative="1" as="geometry">
            <mxPoint x="1050" y="250" as="targetPoint" />
          </mxGeometry>
        </mxCell>
        <mxCell id="KQm_XFiNXjphoHFc2ge8-16" style="edgeStyle=orthogonalEdgeStyle;rounded=0;orthogonalLoop=1;jettySize=auto;html=1;exitX=0.5;exitY=0;exitDx=0;exitDy=0;entryX=0.5;entryY=1;entryDx=0;entryDy=0;endArrow=diamondThin;endFill=1;" edge="1" parent="WIyWlLk6GJQsqaUBKTNV-1" source="gJqL6_EH1w5VgECoRCxp-1" target="gJqL6_EH1w5VgECoRCxp-0">
          <mxGeometry relative="1" as="geometry">
            <Array as="points">
              <mxPoint x="1050" y="130" />
              <mxPoint x="840" y="130" />
            </Array>
          </mxGeometry>
        </mxCell>
        <mxCell id="gJqL6_EH1w5VgECoRCxp-1" value="AdministradorDAO" style="rounded=0;whiteSpace=wrap;html=1;" parent="WIyWlLk6GJQsqaUBKTNV-1" vertex="1">
          <mxGeometry x="990" y="160" width="120" height="60" as="geometry" />
        </mxCell>
        <mxCell id="KQm_XFiNXjphoHFc2ge8-6" value="" style="edgeStyle=orthogonalEdgeStyle;rounded=0;orthogonalLoop=1;jettySize=auto;html=1;endArrow=diamondThin;endFill=1;" edge="1" parent="WIyWlLk6GJQsqaUBKTNV-1" source="gJqL6_EH1w5VgECoRCxp-2" target="gJqL6_EH1w5VgECoRCxp-17">
          <mxGeometry relative="1" as="geometry">
            <Array as="points">
              <mxPoint x="910" y="230" />
              <mxPoint x="910" y="230" />
            </Array>
          </mxGeometry>
        </mxCell>
        <mxCell id="KQm_XFiNXjphoHFc2ge8-15" style="edgeStyle=orthogonalEdgeStyle;rounded=0;orthogonalLoop=1;jettySize=auto;html=1;exitX=0.5;exitY=0;exitDx=0;exitDy=0;entryX=0.5;entryY=1;entryDx=0;entryDy=0;endArrow=diamondThin;endFill=1;" edge="1" parent="WIyWlLk6GJQsqaUBKTNV-1" source="gJqL6_EH1w5VgECoRCxp-2" target="gJqL6_EH1w5VgECoRCxp-0">
          <mxGeometry relative="1" as="geometry">
            <Array as="points">
              <mxPoint x="910" y="130" />
              <mxPoint x="840" y="130" />
            </Array>
          </mxGeometry>
        </mxCell>
        <mxCell id="gJqL6_EH1w5VgECoRCxp-2" value="CuentasDAO" style="rounded=0;whiteSpace=wrap;html=1;" parent="WIyWlLk6GJQsqaUBKTNV-1" vertex="1">
          <mxGeometry x="850" y="160" width="120" height="60" as="geometry" />
        </mxCell>
        <mxCell id="KQm_XFiNXjphoHFc2ge8-4" value="" style="edgeStyle=orthogonalEdgeStyle;rounded=0;orthogonalLoop=1;jettySize=auto;html=1;endArrow=diamondThin;endFill=1;" edge="1" parent="WIyWlLk6GJQsqaUBKTNV-1" source="gJqL6_EH1w5VgECoRCxp-3" target="gJqL6_EH1w5VgECoRCxp-16">
          <mxGeometry relative="1" as="geometry">
            <Array as="points">
              <mxPoint x="770" y="240" />
              <mxPoint x="770" y="240" />
            </Array>
          </mxGeometry>
        </mxCell>
        <mxCell id="KQm_XFiNXjphoHFc2ge8-14" style="edgeStyle=orthogonalEdgeStyle;rounded=0;orthogonalLoop=1;jettySize=auto;html=1;exitX=0.5;exitY=0;exitDx=0;exitDy=0;entryX=0.5;entryY=1;entryDx=0;entryDy=0;endArrow=diamondThin;endFill=1;" edge="1" parent="WIyWlLk6GJQsqaUBKTNV-1" source="gJqL6_EH1w5VgECoRCxp-3" target="gJqL6_EH1w5VgECoRCxp-0">
          <mxGeometry relative="1" as="geometry">
            <Array as="points">
              <mxPoint x="770" y="130" />
              <mxPoint x="840" y="130" />
            </Array>
          </mxGeometry>
        </mxCell>
        <mxCell id="gJqL6_EH1w5VgECoRCxp-3" value="TarjetasDAO" style="rounded=0;whiteSpace=wrap;html=1;" parent="WIyWlLk6GJQsqaUBKTNV-1" vertex="1">
          <mxGeometry x="710" y="160" width="120" height="60" as="geometry" />
        </mxCell>
        <mxCell id="KQm_XFiNXjphoHFc2ge8-0" value="" style="edgeStyle=orthogonalEdgeStyle;rounded=0;orthogonalLoop=1;jettySize=auto;html=1;endArrow=diamondThin;endFill=1;" edge="1" parent="WIyWlLk6GJQsqaUBKTNV-1" source="gJqL6_EH1w5VgECoRCxp-4" target="gJqL6_EH1w5VgECoRCxp-13">
          <mxGeometry relative="1" as="geometry" />
        </mxCell>
        <mxCell id="KQm_XFiNXjphoHFc2ge8-12" style="edgeStyle=orthogonalEdgeStyle;rounded=0;orthogonalLoop=1;jettySize=auto;html=1;exitX=0.5;exitY=0;exitDx=0;exitDy=0;entryX=0.5;entryY=1;entryDx=0;entryDy=0;endArrow=diamondThin;endFill=1;" edge="1" parent="WIyWlLk6GJQsqaUBKTNV-1" source="gJqL6_EH1w5VgECoRCxp-4" target="gJqL6_EH1w5VgECoRCxp-0">
          <mxGeometry relative="1" as="geometry">
            <Array as="points">
              <mxPoint x="490" y="130" />
              <mxPoint x="840" y="130" />
            </Array>
          </mxGeometry>
        </mxCell>
        <mxCell id="gJqL6_EH1w5VgECoRCxp-4" value="ClientesDAO" style="rounded=0;whiteSpace=wrap;html=1;" parent="WIyWlLk6GJQsqaUBKTNV-1" vertex="1">
          <mxGeometry x="430" y="160" width="120" height="60" as="geometry" />
        </mxCell>
        <mxCell id="KQm_XFiNXjphoHFc2ge8-11" value="" style="edgeStyle=orthogonalEdgeStyle;rounded=0;orthogonalLoop=1;jettySize=auto;html=1;endArrow=diamondThin;endFill=1;" edge="1" parent="WIyWlLk6GJQsqaUBKTNV-1" source="gJqL6_EH1w5VgECoRCxp-5" target="gJqL6_EH1w5VgECoRCxp-19">
          <mxGeometry relative="1" as="geometry" />
        </mxCell>
        <mxCell id="KQm_XFiNXjphoHFc2ge8-17" style="edgeStyle=orthogonalEdgeStyle;rounded=0;orthogonalLoop=1;jettySize=auto;html=1;exitX=0.5;exitY=0;exitDx=0;exitDy=0;entryX=0.5;entryY=1;entryDx=0;entryDy=0;endArrow=diamondThin;endFill=1;" edge="1" parent="WIyWlLk6GJQsqaUBKTNV-1" source="gJqL6_EH1w5VgECoRCxp-5" target="gJqL6_EH1w5VgECoRCxp-0">
          <mxGeometry relative="1" as="geometry">
            <Array as="points">
              <mxPoint x="1190" y="130" />
              <mxPoint x="840" y="130" />
            </Array>
          </mxGeometry>
        </mxCell>
        <mxCell id="gJqL6_EH1w5VgECoRCxp-5" value="PerteneceDAO" style="rounded=0;whiteSpace=wrap;html=1;" parent="WIyWlLk6GJQsqaUBKTNV-1" vertex="1">
          <mxGeometry x="1130" y="160" width="120" height="60" as="geometry" />
        </mxCell>
        <mxCell id="KQm_XFiNXjphoHFc2ge8-2" value="" style="edgeStyle=orthogonalEdgeStyle;rounded=0;orthogonalLoop=1;jettySize=auto;html=1;endArrow=diamondThin;endFill=1;" edge="1" parent="WIyWlLk6GJQsqaUBKTNV-1" source="gJqL6_EH1w5VgECoRCxp-6" target="gJqL6_EH1w5VgECoRCxp-15">
          <mxGeometry relative="1" as="geometry" />
        </mxCell>
        <mxCell id="KQm_XFiNXjphoHFc2ge8-13" style="edgeStyle=orthogonalEdgeStyle;rounded=0;orthogonalLoop=1;jettySize=auto;html=1;exitX=0.5;exitY=0;exitDx=0;exitDy=0;entryX=0.5;entryY=1;entryDx=0;entryDy=0;endArrow=diamondThin;endFill=1;" edge="1" parent="WIyWlLk6GJQsqaUBKTNV-1" source="gJqL6_EH1w5VgECoRCxp-6" target="gJqL6_EH1w5VgECoRCxp-0">
          <mxGeometry relative="1" as="geometry">
            <Array as="points">
              <mxPoint x="630" y="130" />
              <mxPoint x="840" y="130" />
            </Array>
          </mxGeometry>
        </mxCell>
        <mxCell id="gJqL6_EH1w5VgECoRCxp-6" value="MovimientosDAO" style="rounded=0;whiteSpace=wrap;html=1;" parent="WIyWlLk6GJQsqaUBKTNV-1" vertex="1">
          <mxGeometry x="570" y="160" width="120" height="60" as="geometry" />
        </mxCell>
        <mxCell id="gJqL6_EH1w5VgECoRCxp-13" value="ClientesDTO" style="rounded=0;whiteSpace=wrap;html=1;" parent="WIyWlLk6GJQsqaUBKTNV-1" vertex="1">
          <mxGeometry x="430" y="250" width="120" height="60" as="geometry" />
        </mxCell>
        <mxCell id="gJqL6_EH1w5VgECoRCxp-15" value="MovimientosDTO" style="rounded=0;whiteSpace=wrap;html=1;" parent="WIyWlLk6GJQsqaUBKTNV-1" vertex="1">
          <mxGeometry x="570" y="250" width="120" height="60" as="geometry" />
        </mxCell>
        <mxCell id="gJqL6_EH1w5VgECoRCxp-16" value="TarjetasDTO" style="rounded=0;whiteSpace=wrap;html=1;" parent="WIyWlLk6GJQsqaUBKTNV-1" vertex="1">
          <mxGeometry x="710" y="250" width="120" height="60" as="geometry" />
        </mxCell>
        <mxCell id="gJqL6_EH1w5VgECoRCxp-17" value="CuentasDTO" style="rounded=0;whiteSpace=wrap;html=1;" parent="WIyWlLk6GJQsqaUBKTNV-1" vertex="1">
          <mxGeometry x="850" y="250" width="120" height="60" as="geometry" />
        </mxCell>
        <mxCell id="gJqL6_EH1w5VgECoRCxp-18" value="AdministradorDTO" style="rounded=0;whiteSpace=wrap;html=1;" parent="WIyWlLk6GJQsqaUBKTNV-1" vertex="1">
          <mxGeometry x="990" y="250" width="120" height="60" as="geometry" />
        </mxCell>
        <mxCell id="gJqL6_EH1w5VgECoRCxp-19" value="PerteneceDTO" style="rounded=0;whiteSpace=wrap;html=1;" parent="WIyWlLk6GJQsqaUBKTNV-1" vertex="1">
          <mxGeometry x="1130" y="250" width="120" height="60" as="geometry" />
        </mxCell>
        <mxCell id="ab0bA_LwP8HOYpd5rGKX-0" value="JFrame" style="rounded=0;whiteSpace=wrap;html=1;" parent="WIyWlLk6GJQsqaUBKTNV-1" vertex="1">
          <mxGeometry x="310" y="360" width="120" height="60" as="geometry" />
        </mxCell>
        <mxCell id="ab0bA_LwP8HOYpd5rGKX-10" style="edgeStyle=orthogonalEdgeStyle;rounded=0;orthogonalLoop=1;jettySize=auto;html=1;exitX=0.5;exitY=0;exitDx=0;exitDy=0;entryX=0.5;entryY=1;entryDx=0;entryDy=0;" parent="WIyWlLk6GJQsqaUBKTNV-1" source="ab0bA_LwP8HOYpd5rGKX-1" target="ab0bA_LwP8HOYpd5rGKX-3" edge="1">
          <mxGeometry relative="1" as="geometry" />
        </mxCell>
        <mxCell id="ab0bA_LwP8HOYpd5rGKX-1" value="V_Login-Usuario" style="rounded=0;whiteSpace=wrap;html=1;" parent="WIyWlLk6GJQsqaUBKTNV-1" vertex="1">
          <mxGeometry x="980" y="1120" width="120" height="60" as="geometry" />
        </mxCell>
        <mxCell id="ab0bA_LwP8HOYpd5rGKX-3" value="JPanel" style="rounded=0;whiteSpace=wrap;html=1;" parent="WIyWlLk6GJQsqaUBKTNV-1" vertex="1">
          <mxGeometry x="1140" y="920" width="120" height="60" as="geometry" />
        </mxCell>
        <mxCell id="ab0bA_LwP8HOYpd5rGKX-8" style="edgeStyle=orthogonalEdgeStyle;rounded=0;orthogonalLoop=1;jettySize=auto;html=1;exitX=0.5;exitY=0;exitDx=0;exitDy=0;entryX=0.5;entryY=1;entryDx=0;entryDy=0;" parent="WIyWlLk6GJQsqaUBKTNV-1" source="ab0bA_LwP8HOYpd5rGKX-4" target="ab0bA_LwP8HOYpd5rGKX-3" edge="1">
          <mxGeometry relative="1" as="geometry" />
        </mxCell>
        <mxCell id="ab0bA_LwP8HOYpd5rGKX-4" value="Vista-Usuario" style="rounded=0;whiteSpace=wrap;html=1;" parent="WIyWlLk6GJQsqaUBKTNV-1" vertex="1">
          <mxGeometry x="1461" y="1120" width="120" height="60" as="geometry" />
        </mxCell>
        <mxCell id="ab0bA_LwP8HOYpd5rGKX-6" value="" style="edgeStyle=orthogonalEdgeStyle;rounded=0;orthogonalLoop=1;jettySize=auto;html=1;" parent="WIyWlLk6GJQsqaUBKTNV-1" source="ab0bA_LwP8HOYpd5rGKX-5" target="ab0bA_LwP8HOYpd5rGKX-0" edge="1">
          <mxGeometry relative="1" as="geometry" />
        </mxCell>
        <mxCell id="ab0bA_LwP8HOYpd5rGKX-5" value="Vista" style="rounded=0;whiteSpace=wrap;html=1;" parent="WIyWlLk6GJQsqaUBKTNV-1" vertex="1">
          <mxGeometry x="310" y="480" width="120" height="60" as="geometry" />
        </mxCell>
        <mxCell id="ab0bA_LwP8HOYpd5rGKX-9" style="edgeStyle=orthogonalEdgeStyle;rounded=0;orthogonalLoop=1;jettySize=auto;html=1;exitX=0.5;exitY=0;exitDx=0;exitDy=0;entryX=0.5;entryY=1;entryDx=0;entryDy=0;" parent="WIyWlLk6GJQsqaUBKTNV-1" source="ab0bA_LwP8HOYpd5rGKX-7" target="ab0bA_LwP8HOYpd5rGKX-3" edge="1">
          <mxGeometry relative="1" as="geometry" />
        </mxCell>
        <mxCell id="ab0bA_LwP8HOYpd5rGKX-7" value="V_LoginAdmin" style="rounded=0;whiteSpace=wrap;html=1;" parent="WIyWlLk6GJQsqaUBKTNV-1" vertex="1">
          <mxGeometry x="1140" y="1120" width="120" height="60" as="geometry" />
        </mxCell>
        <mxCell id="KQm_XFiNXjphoHFc2ge8-64" style="edgeStyle=orthogonalEdgeStyle;rounded=0;orthogonalLoop=1;jettySize=auto;html=1;exitX=0.5;exitY=0;exitDx=0;exitDy=0;entryX=0.5;entryY=1;entryDx=0;entryDy=0;" edge="1" parent="WIyWlLk6GJQsqaUBKTNV-1" source="ab0bA_LwP8HOYpd5rGKX-11" target="ab0bA_LwP8HOYpd5rGKX-3">
          <mxGeometry relative="1" as="geometry" />
        </mxCell>
        <mxCell id="ab0bA_LwP8HOYpd5rGKX-11" value="Vista-Admin" style="rounded=0;whiteSpace=wrap;html=1;" parent="WIyWlLk6GJQsqaUBKTNV-1" vertex="1">
          <mxGeometry x="1300" y="1120" width="120" height="60" as="geometry" />
        </mxCell>
        <mxCell id="ab0bA_LwP8HOYpd5rGKX-13" style="edgeStyle=orthogonalEdgeStyle;rounded=0;orthogonalLoop=1;jettySize=auto;html=1;exitX=0.5;exitY=0;exitDx=0;exitDy=0;entryX=0.5;entryY=1;entryDx=0;entryDy=0;" parent="WIyWlLk6GJQsqaUBKTNV-1" source="ab0bA_LwP8HOYpd5rGKX-12" target="ab0bA_LwP8HOYpd5rGKX-3" edge="1">
          <mxGeometry relative="1" as="geometry" />
        </mxCell>
        <mxCell id="ab0bA_LwP8HOYpd5rGKX-12" value="retirar" style="rounded=0;whiteSpace=wrap;html=1;" parent="WIyWlLk6GJQsqaUBKTNV-1" vertex="1">
          <mxGeometry x="820" y="1120" width="120" height="60" as="geometry" />
        </mxCell>
        <mxCell id="ab0bA_LwP8HOYpd5rGKX-24" style="edgeStyle=orthogonalEdgeStyle;rounded=0;orthogonalLoop=1;jettySize=auto;html=1;exitX=0.5;exitY=1;exitDx=0;exitDy=0;" parent="WIyWlLk6GJQsqaUBKTNV-1" source="ab0bA_LwP8HOYpd5rGKX-23" target="ab0bA_LwP8HOYpd5rGKX-3" edge="1">
          <mxGeometry relative="1" as="geometry" />
        </mxCell>
        <mxCell id="KQm_XFiNXjphoHFc2ge8-39" value="" style="edgeStyle=orthogonalEdgeStyle;rounded=0;orthogonalLoop=1;jettySize=auto;html=1;endArrow=diamondThin;endFill=1;" edge="1" parent="WIyWlLk6GJQsqaUBKTNV-1" source="ab0bA_LwP8HOYpd5rGKX-23" target="KQm_XFiNXjphoHFc2ge8-38">
          <mxGeometry relative="1" as="geometry">
            <Array as="points">
              <mxPoint x="1200" y="530" />
              <mxPoint x="1200" y="530" />
            </Array>
          </mxGeometry>
        </mxCell>
        <mxCell id="ab0bA_LwP8HOYpd5rGKX-23" value="retirar" style="rounded=0;whiteSpace=wrap;html=1;" parent="WIyWlLk6GJQsqaUBKTNV-1" vertex="1">
          <mxGeometry x="1140" y="610" width="120" height="60" as="geometry" />
        </mxCell>
        <mxCell id="ab0bA_LwP8HOYpd5rGKX-26" style="edgeStyle=orthogonalEdgeStyle;rounded=0;orthogonalLoop=1;jettySize=auto;html=1;exitX=0.5;exitY=1;exitDx=0;exitDy=0;entryX=0.5;entryY=0;entryDx=0;entryDy=0;" parent="WIyWlLk6GJQsqaUBKTNV-1" source="ab0bA_LwP8HOYpd5rGKX-25" target="ab0bA_LwP8HOYpd5rGKX-3" edge="1">
          <mxGeometry relative="1" as="geometry" />
        </mxCell>
        <mxCell id="KQm_XFiNXjphoHFc2ge8-68" style="edgeStyle=orthogonalEdgeStyle;rounded=0;orthogonalLoop=1;jettySize=auto;html=1;exitX=0.5;exitY=0;exitDx=0;exitDy=0;entryX=0.5;entryY=1;entryDx=0;entryDy=0;endArrow=diamondThin;endFill=1;" edge="1" parent="WIyWlLk6GJQsqaUBKTNV-1" source="ab0bA_LwP8HOYpd5rGKX-25" target="KQm_XFiNXjphoHFc2ge8-40">
          <mxGeometry relative="1" as="geometry" />
        </mxCell>
        <mxCell id="ab0bA_LwP8HOYpd5rGKX-25" value="ingresar" style="rounded=0;whiteSpace=wrap;html=1;" parent="WIyWlLk6GJQsqaUBKTNV-1" vertex="1">
          <mxGeometry x="1290" y="610" width="120" height="60" as="geometry" />
        </mxCell>
        <mxCell id="ab0bA_LwP8HOYpd5rGKX-28" style="edgeStyle=orthogonalEdgeStyle;rounded=0;orthogonalLoop=1;jettySize=auto;html=1;exitX=0.5;exitY=1;exitDx=0;exitDy=0;entryX=0.5;entryY=0;entryDx=0;entryDy=0;" parent="WIyWlLk6GJQsqaUBKTNV-1" source="ab0bA_LwP8HOYpd5rGKX-27" target="ab0bA_LwP8HOYpd5rGKX-3" edge="1">
          <mxGeometry relative="1" as="geometry" />
        </mxCell>
        <mxCell id="KQm_XFiNXjphoHFc2ge8-35" value="" style="edgeStyle=orthogonalEdgeStyle;rounded=0;orthogonalLoop=1;jettySize=auto;html=1;endArrow=diamondThin;endFill=1;" edge="1" parent="WIyWlLk6GJQsqaUBKTNV-1" source="ab0bA_LwP8HOYpd5rGKX-27" target="KQm_XFiNXjphoHFc2ge8-34">
          <mxGeometry relative="1" as="geometry" />
        </mxCell>
        <mxCell id="ab0bA_LwP8HOYpd5rGKX-27" value="cambiar PIN" style="rounded=0;whiteSpace=wrap;html=1;" parent="WIyWlLk6GJQsqaUBKTNV-1" vertex="1">
          <mxGeometry x="990" y="610" width="120" height="60" as="geometry" />
        </mxCell>
        <mxCell id="ab0bA_LwP8HOYpd5rGKX-30" style="edgeStyle=orthogonalEdgeStyle;rounded=0;orthogonalLoop=1;jettySize=auto;html=1;exitX=0.5;exitY=1;exitDx=0;exitDy=0;entryX=0.5;entryY=0;entryDx=0;entryDy=0;" parent="WIyWlLk6GJQsqaUBKTNV-1" source="ab0bA_LwP8HOYpd5rGKX-29" target="ab0bA_LwP8HOYpd5rGKX-3" edge="1">
          <mxGeometry relative="1" as="geometry" />
        </mxCell>
        <mxCell id="KQm_XFiNXjphoHFc2ge8-33" value="" style="edgeStyle=orthogonalEdgeStyle;rounded=0;orthogonalLoop=1;jettySize=auto;html=1;endArrow=diamondThin;endFill=1;" edge="1" parent="WIyWlLk6GJQsqaUBKTNV-1" source="ab0bA_LwP8HOYpd5rGKX-29" target="KQm_XFiNXjphoHFc2ge8-32">
          <mxGeometry relative="1" as="geometry" />
        </mxCell>
        <mxCell id="ab0bA_LwP8HOYpd5rGKX-29" value="movmientos y saldo" style="rounded=0;whiteSpace=wrap;html=1;" parent="WIyWlLk6GJQsqaUBKTNV-1" vertex="1">
          <mxGeometry x="840" y="610" width="120" height="60" as="geometry" />
        </mxCell>
        <mxCell id="ab0bA_LwP8HOYpd5rGKX-32" style="edgeStyle=orthogonalEdgeStyle;rounded=0;orthogonalLoop=1;jettySize=auto;html=1;exitX=0.5;exitY=1;exitDx=0;exitDy=0;" parent="WIyWlLk6GJQsqaUBKTNV-1" source="ab0bA_LwP8HOYpd5rGKX-31" target="ab0bA_LwP8HOYpd5rGKX-3" edge="1">
          <mxGeometry relative="1" as="geometry" />
        </mxCell>
        <mxCell id="KQm_XFiNXjphoHFc2ge8-43" value="" style="edgeStyle=orthogonalEdgeStyle;rounded=0;orthogonalLoop=1;jettySize=auto;html=1;endArrow=diamondThin;endFill=1;" edge="1" parent="WIyWlLk6GJQsqaUBKTNV-1" source="ab0bA_LwP8HOYpd5rGKX-31" target="KQm_XFiNXjphoHFc2ge8-42">
          <mxGeometry relative="1" as="geometry">
            <Array as="points">
              <mxPoint x="1500" y="540" />
              <mxPoint x="1500" y="540" />
            </Array>
          </mxGeometry>
        </mxCell>
        <mxCell id="ab0bA_LwP8HOYpd5rGKX-31" value="Administrar Tarjetas" style="rounded=0;whiteSpace=wrap;html=1;" parent="WIyWlLk6GJQsqaUBKTNV-1" vertex="1">
          <mxGeometry x="1440" y="610" width="120" height="60" as="geometry" />
        </mxCell>
        <mxCell id="ab0bA_LwP8HOYpd5rGKX-34" style="edgeStyle=orthogonalEdgeStyle;rounded=0;orthogonalLoop=1;jettySize=auto;html=1;exitX=0.5;exitY=1;exitDx=0;exitDy=0;entryX=0.5;entryY=0;entryDx=0;entryDy=0;" parent="WIyWlLk6GJQsqaUBKTNV-1" source="ab0bA_LwP8HOYpd5rGKX-33" target="ab0bA_LwP8HOYpd5rGKX-3" edge="1">
          <mxGeometry relative="1" as="geometry" />
        </mxCell>
        <mxCell id="KQm_XFiNXjphoHFc2ge8-57" value="" style="edgeStyle=orthogonalEdgeStyle;rounded=0;orthogonalLoop=1;jettySize=auto;html=1;endArrow=diamondThin;endFill=1;" edge="1" parent="WIyWlLk6GJQsqaUBKTNV-1" source="ab0bA_LwP8HOYpd5rGKX-33" target="KQm_XFiNXjphoHFc2ge8-56">
          <mxGeometry relative="1" as="geometry" />
        </mxCell>
        <mxCell id="ab0bA_LwP8HOYpd5rGKX-33" value="Administrar Clientes" style="rounded=0;whiteSpace=wrap;html=1;" parent="WIyWlLk6GJQsqaUBKTNV-1" vertex="1">
          <mxGeometry x="1540" y="720" width="120" height="60" as="geometry" />
        </mxCell>
        <mxCell id="ab0bA_LwP8HOYpd5rGKX-36" style="edgeStyle=orthogonalEdgeStyle;rounded=0;orthogonalLoop=1;jettySize=auto;html=1;exitX=0.5;exitY=1;exitDx=0;exitDy=0;entryX=0.5;entryY=0;entryDx=0;entryDy=0;" parent="WIyWlLk6GJQsqaUBKTNV-1" source="ab0bA_LwP8HOYpd5rGKX-35" target="ab0bA_LwP8HOYpd5rGKX-3" edge="1">
          <mxGeometry relative="1" as="geometry" />
        </mxCell>
        <mxCell id="KQm_XFiNXjphoHFc2ge8-53" value="" style="edgeStyle=orthogonalEdgeStyle;rounded=0;orthogonalLoop=1;jettySize=auto;html=1;endArrow=diamondThin;endFill=1;" edge="1" parent="WIyWlLk6GJQsqaUBKTNV-1" source="ab0bA_LwP8HOYpd5rGKX-35" target="KQm_XFiNXjphoHFc2ge8-52">
          <mxGeometry relative="1" as="geometry">
            <Array as="points">
              <mxPoint x="690" y="750" />
              <mxPoint x="690" y="750" />
            </Array>
          </mxGeometry>
        </mxCell>
        <mxCell id="ab0bA_LwP8HOYpd5rGKX-35" value="Administrar Cuentas" style="rounded=0;whiteSpace=wrap;html=1;" parent="WIyWlLk6GJQsqaUBKTNV-1" vertex="1">
          <mxGeometry x="740" y="720" width="120" height="60" as="geometry" />
        </mxCell>
        <mxCell id="ab0bA_LwP8HOYpd5rGKX-38" value="" style="edgeStyle=orthogonalEdgeStyle;rounded=0;orthogonalLoop=1;jettySize=auto;html=1;" parent="WIyWlLk6GJQsqaUBKTNV-1" source="ab0bA_LwP8HOYpd5rGKX-37" target="ab0bA_LwP8HOYpd5rGKX-3" edge="1">
          <mxGeometry relative="1" as="geometry" />
        </mxCell>
        <mxCell id="KQm_XFiNXjphoHFc2ge8-55" value="" style="edgeStyle=orthogonalEdgeStyle;rounded=0;orthogonalLoop=1;jettySize=auto;html=1;endArrow=diamondThin;endFill=1;" edge="1" parent="WIyWlLk6GJQsqaUBKTNV-1" source="ab0bA_LwP8HOYpd5rGKX-37" target="KQm_XFiNXjphoHFc2ge8-54">
          <mxGeometry relative="1" as="geometry" />
        </mxCell>
        <mxCell id="ab0bA_LwP8HOYpd5rGKX-37" value="Administrar Cajero" style="rounded=0;whiteSpace=wrap;html=1;" parent="WIyWlLk6GJQsqaUBKTNV-1" vertex="1">
          <mxGeometry x="740" y="920" width="120" height="60" as="geometry" />
        </mxCell>
        <mxCell id="ab0bA_LwP8HOYpd5rGKX-40" style="edgeStyle=orthogonalEdgeStyle;rounded=0;orthogonalLoop=1;jettySize=auto;html=1;exitX=0;exitY=0.5;exitDx=0;exitDy=0;entryX=1;entryY=0.5;entryDx=0;entryDy=0;" parent="WIyWlLk6GJQsqaUBKTNV-1" source="ab0bA_LwP8HOYpd5rGKX-39" target="ab0bA_LwP8HOYpd5rGKX-3" edge="1">
          <mxGeometry relative="1" as="geometry" />
        </mxCell>
        <mxCell id="KQm_XFiNXjphoHFc2ge8-59" value="" style="edgeStyle=orthogonalEdgeStyle;rounded=0;orthogonalLoop=1;jettySize=auto;html=1;endArrow=diamondThin;endFill=1;" edge="1" parent="WIyWlLk6GJQsqaUBKTNV-1" source="ab0bA_LwP8HOYpd5rGKX-39" target="KQm_XFiNXjphoHFc2ge8-58">
          <mxGeometry relative="1" as="geometry" />
        </mxCell>
        <mxCell id="ab0bA_LwP8HOYpd5rGKX-39" value="Cajero-Apagado" style="rounded=0;whiteSpace=wrap;html=1;" parent="WIyWlLk6GJQsqaUBKTNV-1" vertex="1">
          <mxGeometry x="1540" y="920" width="120" height="60" as="geometry" />
        </mxCell>
        <mxCell id="WcQTSPXpFTV98630ybBk-8" value="ACctionListener" style="rounded=0;whiteSpace=wrap;html=1;" parent="WIyWlLk6GJQsqaUBKTNV-1" vertex="1">
          <mxGeometry x="1630" y="370" width="120" height="60" as="geometry" />
        </mxCell>
        <mxCell id="KQm_XFiNXjphoHFc2ge8-1" value="tiene" style="text;html=1;strokeColor=none;fillColor=none;align=center;verticalAlign=middle;whiteSpace=wrap;rounded=0;" vertex="1" parent="WIyWlLk6GJQsqaUBKTNV-1">
          <mxGeometry x="490" y="220" width="60" height="30" as="geometry" />
        </mxCell>
        <mxCell id="KQm_XFiNXjphoHFc2ge8-3" value="tiene" style="text;html=1;strokeColor=none;fillColor=none;align=center;verticalAlign=middle;whiteSpace=wrap;rounded=0;" vertex="1" parent="WIyWlLk6GJQsqaUBKTNV-1">
          <mxGeometry x="630" y="220" width="60" height="30" as="geometry" />
        </mxCell>
        <mxCell id="KQm_XFiNXjphoHFc2ge8-5" value="tiene" style="text;html=1;strokeColor=none;fillColor=none;align=center;verticalAlign=middle;whiteSpace=wrap;rounded=0;" vertex="1" parent="WIyWlLk6GJQsqaUBKTNV-1">
          <mxGeometry x="770" y="220" width="60" height="30" as="geometry" />
        </mxCell>
        <mxCell id="KQm_XFiNXjphoHFc2ge8-7" value="tiene" style="text;html=1;strokeColor=none;fillColor=none;align=center;verticalAlign=middle;whiteSpace=wrap;rounded=0;" vertex="1" parent="WIyWlLk6GJQsqaUBKTNV-1">
          <mxGeometry x="910" y="220" width="60" height="30" as="geometry" />
        </mxCell>
        <mxCell id="KQm_XFiNXjphoHFc2ge8-9" value="tiene" style="text;html=1;strokeColor=none;fillColor=none;align=center;verticalAlign=middle;whiteSpace=wrap;rounded=0;" vertex="1" parent="WIyWlLk6GJQsqaUBKTNV-1">
          <mxGeometry x="1050" y="220" width="60" height="30" as="geometry" />
        </mxCell>
        <mxCell id="KQm_XFiNXjphoHFc2ge8-10" value="tiene" style="text;html=1;strokeColor=none;fillColor=none;align=center;verticalAlign=middle;whiteSpace=wrap;rounded=0;" vertex="1" parent="WIyWlLk6GJQsqaUBKTNV-1">
          <mxGeometry x="1190" y="220" width="60" height="30" as="geometry" />
        </mxCell>
        <mxCell id="KQm_XFiNXjphoHFc2ge8-18" value="tiene" style="text;html=1;strokeColor=none;fillColor=none;align=center;verticalAlign=middle;whiteSpace=wrap;rounded=0;" vertex="1" parent="WIyWlLk6GJQsqaUBKTNV-1">
          <mxGeometry x="710" y="100" width="60" height="30" as="geometry" />
        </mxCell>
        <mxCell id="KQm_XFiNXjphoHFc2ge8-19" value="1,1" style="text;html=1;strokeColor=none;fillColor=none;align=center;verticalAlign=middle;whiteSpace=wrap;rounded=0;" vertex="1" parent="WIyWlLk6GJQsqaUBKTNV-1">
          <mxGeometry x="430" y="220" width="60" height="30" as="geometry" />
        </mxCell>
        <mxCell id="KQm_XFiNXjphoHFc2ge8-20" value="1,1" style="text;html=1;strokeColor=none;fillColor=none;align=center;verticalAlign=middle;whiteSpace=wrap;rounded=0;" vertex="1" parent="WIyWlLk6GJQsqaUBKTNV-1">
          <mxGeometry x="570" y="220" width="60" height="30" as="geometry" />
        </mxCell>
        <mxCell id="KQm_XFiNXjphoHFc2ge8-21" value="1,1" style="text;html=1;strokeColor=none;fillColor=none;align=center;verticalAlign=middle;whiteSpace=wrap;rounded=0;" vertex="1" parent="WIyWlLk6GJQsqaUBKTNV-1">
          <mxGeometry x="710" y="220" width="60" height="30" as="geometry" />
        </mxCell>
        <mxCell id="KQm_XFiNXjphoHFc2ge8-22" value="1,1" style="text;html=1;strokeColor=none;fillColor=none;align=center;verticalAlign=middle;whiteSpace=wrap;rounded=0;" vertex="1" parent="WIyWlLk6GJQsqaUBKTNV-1">
          <mxGeometry x="850" y="220" width="60" height="30" as="geometry" />
        </mxCell>
        <mxCell id="KQm_XFiNXjphoHFc2ge8-24" value="1,1" style="text;html=1;strokeColor=none;fillColor=none;align=center;verticalAlign=middle;whiteSpace=wrap;rounded=0;" vertex="1" parent="WIyWlLk6GJQsqaUBKTNV-1">
          <mxGeometry x="990" y="220" width="60" height="30" as="geometry" />
        </mxCell>
        <mxCell id="KQm_XFiNXjphoHFc2ge8-25" value="1,1" style="text;html=1;strokeColor=none;fillColor=none;align=center;verticalAlign=middle;whiteSpace=wrap;rounded=0;" vertex="1" parent="WIyWlLk6GJQsqaUBKTNV-1">
          <mxGeometry x="1130" y="220" width="60" height="30" as="geometry" />
        </mxCell>
        <mxCell id="KQm_XFiNXjphoHFc2ge8-27" value="tiene" style="text;html=1;strokeColor=none;fillColor=none;align=center;verticalAlign=middle;whiteSpace=wrap;rounded=0;" vertex="1" parent="WIyWlLk6GJQsqaUBKTNV-1">
          <mxGeometry x="910" y="100" width="60" height="30" as="geometry" />
        </mxCell>
        <mxCell id="KQm_XFiNXjphoHFc2ge8-28" value="tiene" style="text;html=1;strokeColor=none;fillColor=none;align=center;verticalAlign=middle;whiteSpace=wrap;rounded=0;" vertex="1" parent="WIyWlLk6GJQsqaUBKTNV-1">
          <mxGeometry x="570" y="100" width="60" height="30" as="geometry" />
        </mxCell>
        <mxCell id="KQm_XFiNXjphoHFc2ge8-29" value="tiene" style="text;html=1;strokeColor=none;fillColor=none;align=center;verticalAlign=middle;whiteSpace=wrap;rounded=0;" vertex="1" parent="WIyWlLk6GJQsqaUBKTNV-1">
          <mxGeometry x="430" y="100" width="60" height="30" as="geometry" />
        </mxCell>
        <mxCell id="KQm_XFiNXjphoHFc2ge8-30" value="tiene" style="text;html=1;strokeColor=none;fillColor=none;align=center;verticalAlign=middle;whiteSpace=wrap;rounded=0;" vertex="1" parent="WIyWlLk6GJQsqaUBKTNV-1">
          <mxGeometry x="1050" y="100" width="60" height="30" as="geometry" />
        </mxCell>
        <mxCell id="KQm_XFiNXjphoHFc2ge8-31" value="tiene" style="text;html=1;strokeColor=none;fillColor=none;align=center;verticalAlign=middle;whiteSpace=wrap;rounded=0;" vertex="1" parent="WIyWlLk6GJQsqaUBKTNV-1">
          <mxGeometry x="1190" y="100" width="60" height="30" as="geometry" />
        </mxCell>
        <mxCell id="KQm_XFiNXjphoHFc2ge8-37" style="edgeStyle=orthogonalEdgeStyle;rounded=0;orthogonalLoop=1;jettySize=auto;html=1;exitX=0.5;exitY=0;exitDx=0;exitDy=0;entryX=0;entryY=0.5;entryDx=0;entryDy=0;dashed=1;endArrow=block;endFill=0;" edge="1" parent="WIyWlLk6GJQsqaUBKTNV-1" source="KQm_XFiNXjphoHFc2ge8-32" target="WcQTSPXpFTV98630ybBk-8">
          <mxGeometry relative="1" as="geometry" />
        </mxCell>
        <mxCell id="KQm_XFiNXjphoHFc2ge8-32" value="GestorVerMovimientos" style="rounded=0;whiteSpace=wrap;html=1;" vertex="1" parent="WIyWlLk6GJQsqaUBKTNV-1">
          <mxGeometry x="840" y="450" width="120" height="60" as="geometry" />
        </mxCell>
        <mxCell id="KQm_XFiNXjphoHFc2ge8-36" style="edgeStyle=orthogonalEdgeStyle;rounded=0;orthogonalLoop=1;jettySize=auto;html=1;exitX=0.5;exitY=0;exitDx=0;exitDy=0;entryX=0;entryY=0.5;entryDx=0;entryDy=0;dashed=1;endArrow=block;endFill=0;" edge="1" parent="WIyWlLk6GJQsqaUBKTNV-1" source="KQm_XFiNXjphoHFc2ge8-34" target="WcQTSPXpFTV98630ybBk-8">
          <mxGeometry relative="1" as="geometry">
            <Array as="points">
              <mxPoint x="1050" y="400" />
            </Array>
          </mxGeometry>
        </mxCell>
        <mxCell id="KQm_XFiNXjphoHFc2ge8-34" value="GestorCambiarPin" style="rounded=0;whiteSpace=wrap;html=1;" vertex="1" parent="WIyWlLk6GJQsqaUBKTNV-1">
          <mxGeometry x="990" y="450" width="120" height="60" as="geometry" />
        </mxCell>
        <mxCell id="KQm_XFiNXjphoHFc2ge8-49" style="edgeStyle=orthogonalEdgeStyle;rounded=0;orthogonalLoop=1;jettySize=auto;html=1;exitX=0.5;exitY=0;exitDx=0;exitDy=0;entryX=0;entryY=0.5;entryDx=0;entryDy=0;dashed=1;endArrow=block;endFill=0;" edge="1" parent="WIyWlLk6GJQsqaUBKTNV-1" source="KQm_XFiNXjphoHFc2ge8-38" target="WcQTSPXpFTV98630ybBk-8">
          <mxGeometry relative="1" as="geometry" />
        </mxCell>
        <mxCell id="KQm_XFiNXjphoHFc2ge8-38" value="GestorRetirar" style="rounded=0;whiteSpace=wrap;html=1;" vertex="1" parent="WIyWlLk6GJQsqaUBKTNV-1">
          <mxGeometry x="1140" y="450" width="120" height="60" as="geometry" />
        </mxCell>
        <mxCell id="KQm_XFiNXjphoHFc2ge8-50" style="edgeStyle=orthogonalEdgeStyle;rounded=0;orthogonalLoop=1;jettySize=auto;html=1;exitX=0.5;exitY=0;exitDx=0;exitDy=0;entryX=0;entryY=0.5;entryDx=0;entryDy=0;endArrow=block;endFill=0;dashed=1;" edge="1" parent="WIyWlLk6GJQsqaUBKTNV-1" source="KQm_XFiNXjphoHFc2ge8-40" target="WcQTSPXpFTV98630ybBk-8">
          <mxGeometry relative="1" as="geometry">
            <mxPoint x="1410" y="390" as="targetPoint" />
          </mxGeometry>
        </mxCell>
        <mxCell id="KQm_XFiNXjphoHFc2ge8-40" value="GestorIngresar" style="rounded=0;whiteSpace=wrap;html=1;" vertex="1" parent="WIyWlLk6GJQsqaUBKTNV-1">
          <mxGeometry x="1291" y="450" width="120" height="60" as="geometry" />
        </mxCell>
        <mxCell id="KQm_XFiNXjphoHFc2ge8-51" style="edgeStyle=orthogonalEdgeStyle;rounded=0;orthogonalLoop=1;jettySize=auto;html=1;exitX=0.5;exitY=0;exitDx=0;exitDy=0;entryX=0;entryY=0.5;entryDx=0;entryDy=0;dashed=1;endArrow=block;endFill=0;" edge="1" parent="WIyWlLk6GJQsqaUBKTNV-1" source="KQm_XFiNXjphoHFc2ge8-42" target="WcQTSPXpFTV98630ybBk-8">
          <mxGeometry relative="1" as="geometry" />
        </mxCell>
        <mxCell id="KQm_XFiNXjphoHFc2ge8-42" value="GestorVentana" style="rounded=0;whiteSpace=wrap;html=1;" vertex="1" parent="WIyWlLk6GJQsqaUBKTNV-1">
          <mxGeometry x="1440" y="450" width="120" height="60" as="geometry" />
        </mxCell>
        <mxCell id="KQm_XFiNXjphoHFc2ge8-44" value="tiene" style="text;html=1;strokeColor=none;fillColor=none;align=center;verticalAlign=middle;whiteSpace=wrap;rounded=0;" vertex="1" parent="WIyWlLk6GJQsqaUBKTNV-1">
          <mxGeometry x="1500" y="550" width="60" height="30" as="geometry" />
        </mxCell>
        <mxCell id="KQm_XFiNXjphoHFc2ge8-45" value="tiene" style="text;html=1;strokeColor=none;fillColor=none;align=center;verticalAlign=middle;whiteSpace=wrap;rounded=0;" vertex="1" parent="WIyWlLk6GJQsqaUBKTNV-1">
          <mxGeometry x="1351" y="550" width="60" height="30" as="geometry" />
        </mxCell>
        <mxCell id="KQm_XFiNXjphoHFc2ge8-46" value="tiene" style="text;html=1;strokeColor=none;fillColor=none;align=center;verticalAlign=middle;whiteSpace=wrap;rounded=0;" vertex="1" parent="WIyWlLk6GJQsqaUBKTNV-1">
          <mxGeometry x="1200" y="550" width="60" height="30" as="geometry" />
        </mxCell>
        <mxCell id="KQm_XFiNXjphoHFc2ge8-47" value="tiene" style="text;html=1;strokeColor=none;fillColor=none;align=center;verticalAlign=middle;whiteSpace=wrap;rounded=0;" vertex="1" parent="WIyWlLk6GJQsqaUBKTNV-1">
          <mxGeometry x="1050" y="550" width="60" height="30" as="geometry" />
        </mxCell>
        <mxCell id="KQm_XFiNXjphoHFc2ge8-48" value="tiene" style="text;html=1;strokeColor=none;fillColor=none;align=center;verticalAlign=middle;whiteSpace=wrap;rounded=0;" vertex="1" parent="WIyWlLk6GJQsqaUBKTNV-1">
          <mxGeometry x="900" y="550" width="60" height="30" as="geometry" />
        </mxCell>
        <mxCell id="KQm_XFiNXjphoHFc2ge8-52" value="VentanaAdmCuentas" style="rounded=0;whiteSpace=wrap;html=1;" vertex="1" parent="WIyWlLk6GJQsqaUBKTNV-1">
          <mxGeometry x="540" y="720" width="120" height="60" as="geometry" />
        </mxCell>
        <mxCell id="KQm_XFiNXjphoHFc2ge8-54" value="VentanaAdmCuentas" style="rounded=0;whiteSpace=wrap;html=1;" vertex="1" parent="WIyWlLk6GJQsqaUBKTNV-1">
          <mxGeometry x="540" y="920" width="120" height="60" as="geometry" />
        </mxCell>
        <mxCell id="KQm_XFiNXjphoHFc2ge8-56" value="VenatanaAdmCli" style="rounded=0;whiteSpace=wrap;html=1;" vertex="1" parent="WIyWlLk6GJQsqaUBKTNV-1">
          <mxGeometry x="1740" y="720" width="120" height="60" as="geometry" />
        </mxCell>
        <mxCell id="KQm_XFiNXjphoHFc2ge8-58" value="VentanaApagado" style="rounded=0;whiteSpace=wrap;html=1;" vertex="1" parent="WIyWlLk6GJQsqaUBKTNV-1">
          <mxGeometry x="1740" y="920" width="120" height="60" as="geometry" />
        </mxCell>
        <mxCell id="KQm_XFiNXjphoHFc2ge8-60" value="tiene" style="text;html=1;strokeColor=none;fillColor=none;align=center;verticalAlign=middle;whiteSpace=wrap;rounded=0;" vertex="1" parent="WIyWlLk6GJQsqaUBKTNV-1">
          <mxGeometry x="670" y="710" width="60" height="30" as="geometry" />
        </mxCell>
        <mxCell id="KQm_XFiNXjphoHFc2ge8-61" value="tiene" style="text;html=1;strokeColor=none;fillColor=none;align=center;verticalAlign=middle;whiteSpace=wrap;rounded=0;" vertex="1" parent="WIyWlLk6GJQsqaUBKTNV-1">
          <mxGeometry x="1670" y="710" width="60" height="30" as="geometry" />
        </mxCell>
        <mxCell id="KQm_XFiNXjphoHFc2ge8-62" value="tiene" style="text;html=1;strokeColor=none;fillColor=none;align=center;verticalAlign=middle;whiteSpace=wrap;rounded=0;" vertex="1" parent="WIyWlLk6GJQsqaUBKTNV-1">
          <mxGeometry x="1670" y="910" width="60" height="30" as="geometry" />
        </mxCell>
        <mxCell id="KQm_XFiNXjphoHFc2ge8-63" value="tiene" style="text;html=1;strokeColor=none;fillColor=none;align=center;verticalAlign=middle;whiteSpace=wrap;rounded=0;" vertex="1" parent="WIyWlLk6GJQsqaUBKTNV-1">
          <mxGeometry x="670" y="910" width="60" height="30" as="geometry" />
        </mxCell>
        <mxCell id="KQm_XFiNXjphoHFc2ge8-69" value="1,1" style="text;html=1;strokeColor=none;fillColor=none;align=center;verticalAlign=middle;whiteSpace=wrap;rounded=0;" vertex="1" parent="WIyWlLk6GJQsqaUBKTNV-1">
          <mxGeometry x="990" y="555" width="60" height="30" as="geometry" />
        </mxCell>
        <mxCell id="KQm_XFiNXjphoHFc2ge8-70" value="1,1" style="text;html=1;strokeColor=none;fillColor=none;align=center;verticalAlign=middle;whiteSpace=wrap;rounded=0;" vertex="1" parent="WIyWlLk6GJQsqaUBKTNV-1">
          <mxGeometry x="840" y="550" width="60" height="30" as="geometry" />
        </mxCell>
        <mxCell id="KQm_XFiNXjphoHFc2ge8-71" value="1,1" style="text;html=1;strokeColor=none;fillColor=none;align=center;verticalAlign=middle;whiteSpace=wrap;rounded=0;" vertex="1" parent="WIyWlLk6GJQsqaUBKTNV-1">
          <mxGeometry x="1140" y="550" width="60" height="30" as="geometry" />
        </mxCell>
        <mxCell id="KQm_XFiNXjphoHFc2ge8-72" value="1,1" style="text;html=1;strokeColor=none;fillColor=none;align=center;verticalAlign=middle;whiteSpace=wrap;rounded=0;" vertex="1" parent="WIyWlLk6GJQsqaUBKTNV-1">
          <mxGeometry x="1291" y="550" width="60" height="30" as="geometry" />
        </mxCell>
        <mxCell id="KQm_XFiNXjphoHFc2ge8-73" value="1,1" style="text;html=1;strokeColor=none;fillColor=none;align=center;verticalAlign=middle;whiteSpace=wrap;rounded=0;" vertex="1" parent="WIyWlLk6GJQsqaUBKTNV-1">
          <mxGeometry x="1440" y="550" width="60" height="30" as="geometry" />
        </mxCell>
      </root>
    </mxGraphModel>
  </diagram>
</mxfile>
